<svg xmlns="http://www.w3.org/2000/svg" xmlns:xlink="http://www.w3.org/1999/xlink" width="60" height="60" viewBox="0 0 60 60">
  <defs>
    <linearGradient id="linear-gradient" x1="0.055" y1="1.024" x2="1.141" y2="-0.165" gradientUnits="objectBoundingBox">
      <stop offset="0" stop-color="#257beb"/>
      <stop offset="1" stop-color="#4db4fc"/>
    </linearGradient>
    <linearGradient id="linear-gradient-2" x1="0.74" y1="0.023" x2="0.396" y2="0.918" gradientUnits="objectBoundingBox">
      <stop offset="0" stop-color="#fff"/>
      <stop offset="1" stop-color="#83c7ff"/>
    </linearGradient>
    <linearGradient id="linear-gradient-3" x1="-0.088" y1="1.087" x2="1.11" y2="0.11" gradientUnits="objectBoundingBox">
      <stop offset="0" stop-color="#fff"/>
      <stop offset="1" stop-color="#fff"/>
    </linearGradient>
  </defs>
  <g id="recurrente_icon_blue_bg" transform="translate(-44.097 -347)">
    <rect id="Rectangle_8" data-name="Rectangle 8" width="60" height="60" rx="9" transform="translate(44.097 347)" fill="url(#linear-gradient)"/>
    <g id="Group_7" data-name="Group 7" transform="translate(-34.866 172.991)">
      <path id="Path_38" data-name="Path 38" d="M3.134,28.039,0,24.169a16.893,16.893,0,0,0,1.587-1.033c4.765-3.5,7.333-9.448,7.639-17.673L7.519,5.421a.444.444,0,0,1-.3-.756l4.5-4.534a.443.443,0,0,1,.644.017L16.623,4.9a.442.442,0,0,1-.341.738l-2.127-.052c-.353,9.848-3.6,17.092-9.668,21.539-.435.319-.891.628-1.353.916h0Z" transform="translate(113.3 188.009)" stroke="rgba(0,0,0,0)" stroke-width="1" fill="url(#linear-gradient-2)"/>
      <path id="Union_5" data-name="Union 5" d="M.63,29.424h0a.84.84,0,0,1-.609-1l.8-3.445a.84.84,0,0,1,1.007-.629l.254.059,0-.007.192.052.306.071a.848.848,0,0,1,.116.035A44.676,44.676,0,0,0,9.661,25.63a14.914,14.914,0,1,1,14.188,3.72A35.174,35.174,0,0,1,12.773,31,47.49,47.49,0,0,1,.63,29.424Zm9.72-14.5A9.7,9.7,0,0,0,22.323,24.34l.2-.068.011.014A9.691,9.691,0,1,0,10.35,14.921Z" transform="translate(87.963 188.993)" stroke="rgba(0,0,0,0)" stroke-miterlimit="10" stroke-width="1" fill="url(#linear-gradient-3)"/>
      <path id="Path_42" data-name="Path 42" d="M126.059,232.865s9.447,1.38,12.864-1.376l.075-.062a9.489,9.489,0,0,1-7.545-.993h-.01c-.78.12-7.487-.164-7.487-.164l1.006,1.43Z" transform="translate(-28.402 -18.181)" opacity="0.143"/>
    </g>
  </g>
</svg>
